<svg xmlns="http://www.w3.org/2000/svg" viewBox="0 0 1600 900" role="img" aria-labelledby="title desc">
  <title id="title">Crypto market</title>
  <desc id="desc">An abstract coin crossed by an ascending market line on a dark ink field.</desc>
  <defs>
    <linearGradient id="bg" x1="0" y1="0" x2="1" y2="1">
      <stop stop-color="#06080c"/>
      <stop offset="1" stop-color="#131824"/>
    </linearGradient>
    <radialGradient id="halo" cx="50%" cy="50%" r="50%">
      <stop stop-color="#c8a23e" stop-opacity=".13"/>
      <stop offset="1" stop-color="#c8a23e" stop-opacity="0"/>
    </radialGradient>
  </defs>
  <rect width="1600" height="900" fill="url(#bg)"/>
  <circle cx="800" cy="450" r="360" fill="url(#halo)"/>
  <g fill="none" stroke-linecap="round" stroke-linejoin="round">
    <circle cx="800" cy="450" r="230" stroke="#293244" stroke-width="3"/>
    <circle cx="800" cy="450" r="184" stroke="#e3ddcf" stroke-width="12"/>
    <path d="M748 304v292M852 304v292" stroke="#5d687e" stroke-width="12"/>
    <path d="M704 358h126c58 0 87 21 87 63 0 31-19 51-57 60 47 8 70 31 70 69 0 49-34 74-101 74H704" stroke="#e3ddcf" stroke-width="18"/>
    <path d="M717 481h143" stroke="#e3ddcf" stroke-width="18"/>
    <path d="M372 642 577 547 700 589 882 427 1018 474 1228 268" stroke="#c8a23e" stroke-width="14"/>
  </g>
  <g fill="#c8a23e">
    <circle cx="372" cy="642" r="11"/>
    <circle cx="1228" cy="268" r="16"/>
  </g>
</svg>
